<svg width="28" height="46" viewBox="0 0 28 46" fill="none" xmlns="http://www.w3.org/2000/svg">
<rect x="1" y="1" width="26" height="44" rx="5" stroke="url(#paint0_linear_2427_926)" stroke-width="2"/>
<mask id="path-2-inside-1_2427_926" fill="white">
<path d="M9 1H19C19 2.10457 18.1046 3 17 3H11C9.89543 3 9 2.10457 9 1Z"/>
</mask>
<path d="M9 3H19V-1H9V3ZM17 1H11V5H17V1ZM11 1H11H7C7 3.20914 8.79086 5 11 5V1ZM17 1V5C19.2091 5 21 3.20914 21 1H17Z" fill="white" mask="url(#path-2-inside-1_2427_926)"/>
<path d="M14 15L14 20" stroke="url(#paint1_linear_2427_926)" stroke-width="2"/>
<path d="M14 26L14 31" stroke="url(#paint2_linear_2427_926)" stroke-width="2"/>
<path d="M6 23H11" stroke="url(#paint3_linear_2427_926)" stroke-width="2"/>
<path d="M17 23H22" stroke="url(#paint4_linear_2427_926)" stroke-width="2"/>
<defs>
<linearGradient id="paint0_linear_2427_926" x1="21.35" y1="6.44" x2="2.52267" y2="51.019" gradientUnits="userSpaceOnUse">
<stop stop-color="white"/>
<stop offset="1" stop-color="white" stop-opacity="0"/>
</linearGradient>
<linearGradient id="paint1_linear_2427_926" x1="14.0003" y1="15.0002" x2="14.0003" y2="20.0002" gradientUnits="userSpaceOnUse">
<stop stop-color="white"/>
<stop offset="1" stop-color="white" stop-opacity="0"/>
</linearGradient>
<linearGradient id="paint2_linear_2427_926" x1="14" y1="31" x2="14" y2="26" gradientUnits="userSpaceOnUse">
<stop stop-color="white"/>
<stop offset="1" stop-color="white" stop-opacity="0"/>
</linearGradient>
<linearGradient id="paint3_linear_2427_926" x1="6.00024" y1="23.0003" x2="11.0002" y2="23.0003" gradientUnits="userSpaceOnUse">
<stop stop-color="white"/>
<stop offset="1" stop-color="white" stop-opacity="0"/>
</linearGradient>
<linearGradient id="paint4_linear_2427_926" x1="22" y1="23" x2="17" y2="23" gradientUnits="userSpaceOnUse">
<stop stop-color="white"/>
<stop offset="1" stop-color="white" stop-opacity="0"/>
</linearGradient>
</defs>
</svg>
