<?xml version="1.0" standalone="no"?>
<!DOCTYPE svg PUBLIC "-//W3C//DTD SVG 20010904//EN"
 "http://www.w3.org/TR/2001/REC-SVG-20010904/DTD/svg10.dtd">
<svg version="1.0" xmlns="http://www.w3.org/2000/svg"
 width="1024.000000pt" height="1024.000000pt" viewBox="0 0 1024.000000 1024.000000"
 preserveAspectRatio="xMidYMid meet">
<metadata>
Created by potrace 1.14, written by Peter Selinger 2001-2017
</metadata>
<g transform="translate(0.000000,1024.000000) scale(0.100000,-0.100000)"
fill="#000000" stroke="none">
<path d="M0 5120 l0 -5120 4720 0 4720 0 0 80 0 80 320 0 320 0 0 -80 0 -80
80 0 80 0 0 5120 0 5120 -5120 0 -5120 0 0 -5120z m5410 2730 c271 -25 375
-43 660 -110 91 -22 208 -49 260 -60 52 -12 111 -27 130 -35 19 -7 64 -25 100
-39 295 -114 684 -300 745 -355 11 -10 39 -28 63 -40 24 -12 45 -28 48 -36 3
-7 31 -30 62 -50 105 -69 164 -119 298 -254 78 -78 164 -176 204 -232 103
-147 187 -288 200 -339 7 -25 16 -54 21 -65 25 -59 50 -151 64 -235 12 -80 15
-236 15 -981 0 -861 -1 -888 -20 -944 -11 -32 -26 -66 -34 -74 -7 -9 -25 -41
-39 -72 -15 -31 -43 -76 -62 -99 -20 -24 -45 -60 -55 -80 -10 -20 -26 -42 -34
-49 -9 -8 -44 -50 -79 -94 -66 -87 -247 -268 -325 -326 -26 -20 -75 -58 -109
-86 -107 -86 -205 -151 -278 -184 -38 -17 -77 -39 -88 -48 -21 -20 -93 -60
-197 -109 -41 -20 -87 -42 -102 -50 -14 -8 -31 -14 -37 -14 -11 0 -166 -58
-226 -84 -77 -34 -213 -74 -475 -140 -101 -26 -260 -52 -400 -66 -47 -5 -108
-14 -135 -20 -84 -17 -365 -28 -610 -24 -213 4 -547 34 -701 63 -27 5 -67 12
-89 15 -68 10 -125 24 -260 64 -38 12 -81 23 -95 26 -97 20 -236 66 -340 114
-36 16 -78 32 -95 36 -42 10 -226 93 -302 136 -34 19 -120 67 -190 107 -75 42
-188 119 -272 184 -253 198 -423 387 -576 638 -11 18 -31 50 -44 70 -13 20
-37 65 -53 101 -17 36 -35 76 -41 89 -17 35 -17 1869 0 1926 6 22 26 91 43
154 45 162 123 310 261 495 63 83 325 353 361 372 17 9 78 53 136 98 92 71
255 177 342 222 60 31 367 172 390 179 14 4 75 27 137 51 106 42 274 91 338
101 17 2 59 12 95 23 58 17 162 40 315 70 61 12 79 14 230 34 66 9 147 20 180
24 88 13 543 14 665 2z"/>
<path d="M4600 7380 c-63 -5 -155 -16 -205 -25 -49 -8 -142 -25 -205 -36 -157
-28 -302 -65 -445 -115 -177 -62 -198 -70 -290 -114 -47 -22 -89 -40 -95 -40
-10 0 -126 -58 -165 -83 -139 -88 -180 -116 -215 -147 -15 -14 -72 -63 -125
-110 -53 -47 -113 -110 -133 -140 -19 -30 -50 -73 -68 -95 -76 -94 -148 -276
-165 -419 -29 -235 21 -421 176 -655 62 -93 241 -286 293 -315 9 -5 45 -34 80
-63 34 -29 67 -53 74 -53 6 0 19 -6 27 -14 9 -8 48 -31 86 -51 39 -20 88 -47
110 -61 22 -13 63 -32 90 -43 28 -10 84 -35 125 -54 110 -52 263 -100 450
-142 62 -14 127 -29 195 -45 44 -11 103 -21 130 -24 28 -3 71 -10 97 -15 111
-25 450 -43 683 -37 218 7 452 25 485 39 8 3 53 11 100 17 112 16 111 15 143
29 16 6 35 11 44 11 9 0 32 4 52 10 20 5 76 19 126 30 124 30 295 86 390 130
44 20 107 47 140 60 33 14 78 36 100 51 22 14 69 40 104 58 84 42 137 79 241
165 238 198 367 373 443 599 29 87 30 100 30 252 0 145 -2 167 -26 235 -65
193 -64 190 -162 330 -83 119 -276 303 -384 366 -20 11 -58 36 -85 55 -91 64
-160 101 -286 152 -47 20 -119 49 -160 67 -142 60 -322 120 -425 143 -162 36
-348 69 -495 88 -104 13 -740 19 -880 9z"/>
<path d="M8067 5050 c-64 -156 -219 -375 -372 -523 -115 -112 -428 -347 -462
-347 -7 0 -13 -4 -13 -8 0 -4 -28 -21 -61 -37 -34 -17 -121 -60 -193 -96 -72
-36 -169 -79 -216 -94 -47 -15 -98 -33 -115 -40 -66 -28 -214 -75 -280 -89
-38 -8 -104 -24 -145 -35 -79 -22 -270 -62 -380 -80 -245 -39 -326 -44 -720
-45 -359 -1 -506 6 -650 30 -19 3 -89 14 -155 24 -237 38 -609 129 -725 178
-60 25 -73 30 -155 57 -184 61 -587 278 -692 372 -23 21 -63 54 -89 73 -26 19
-54 42 -63 50 -9 8 -31 26 -49 38 -17 13 -66 66 -108 118 -41 51 -81 97 -88
101 -22 14 -92 116 -156 228 -34 61 -68 116 -75 124 -11 11 -12 -71 -8 -455
l5 -469 40 -75 c22 -41 50 -88 62 -105 12 -16 31 -46 43 -66 25 -44 138 -182
218 -267 158 -168 476 -409 675 -511 47 -24 90 -47 95 -51 6 -4 54 -24 109
-44 54 -20 117 -46 140 -57 109 -55 410 -144 621 -183 50 -10 137 -26 195 -37
291 -54 545 -73 890 -65 146 3 281 8 300 11 19 3 91 12 160 20 69 8 168 24
220 35 52 11 156 31 230 45 109 19 231 51 385 99 12 4 12 4 225 89 96 38 197
78 225 89 27 11 70 33 94 50 25 16 55 34 67 38 26 10 286 184 340 228 21 18
68 56 104 84 92 75 276 269 348 369 33 46 79 110 102 141 23 32 53 86 68 120
l27 63 3 385 c2 212 2 426 0 475 l-3 90 -18 -45z"/>
</g>
</svg>
